<svg width="1032" height="584" viewBox="0 0 1032 584" fill="none" xmlns="http://www.w3.org/2000/svg">
<rect width="1032" height="584" rx="10" fill="white"/>
<rect x="3.5" y="4" width="1024" height="576" rx="10" fill="#39A15C"/>
<path d="M3.5 14C3.5 8.47715 7.97715 4 13.5 4H67.5V68H3.5V14Z" fill="#A13939"/>
<path d="M67.5 4H131.5V68H67.5V4Z" fill="#A13939"/>
<path d="M963 68H1027V132H963V68Z" fill="#2DA3F3"/>
<path d="M963 216C963 204.954 971.954 196 983 196H1027V260H983C971.954 260 963 251.046 963 240V216Z" fill="#A13939"/>
<path d="M3.5 324H67.5V388H3.5V324Z" fill="#A13939"/>
<path d="M963 132H1027V196H963V132Z" fill="#2DA3F3"/>
<path d="M3.5 260H47.5C58.5457 260 67.5 268.954 67.5 280V324H3.5V260Z" fill="#A13939"/>
<path d="M3.5 388H67.5V452H3.5V388Z" fill="#A13939"/>
<path d="M3.5 452H67.5V516H3.5V452Z" fill="#A13939"/>
<path d="M963.5 472C963.5 460.954 972.454 452 983.5 452H1027.5V516H963.5V472Z" fill="#A13939"/>
<path d="M67.5 516H131.5V580H67.5V516Z" fill="#A13939"/>
<path d="M259.5 516H323.5V580H259.5V516Z" fill="#A13939"/>
<path d="M259 4H323V68H259V4Z" fill="#A13939"/>
<path d="M451 4H515V68H451V4Z" fill="#A13939"/>
<path d="M643.5 516H707.5V580H643.5V516Z" fill="#A13939"/>
<path d="M131.5 516H195.5V580H131.5V516Z" fill="#A13939"/>
<path d="M131 4H195V68H131V4Z" fill="#A13939"/>
<path d="M323.5 516H367.5C378.546 516 387.5 524.954 387.5 536V580H323.5V516Z" fill="#A13939"/>
<path d="M323 4H387V68H323V4Z" fill="#A13939"/>
<path d="M515 4H579V68H515V4Z" fill="#A13939"/>
<path d="M707.5 516H771.5V580H707.5V516Z" fill="#A13939"/>
<path d="M707 4H771V68H707V4Z" fill="#A13939"/>
<path d="M835.5 516H899.5V580H835.5V516Z" fill="#A13939"/>
<path d="M835 4H899V68H835V4Z" fill="#2DA3F3"/>
<path d="M195.5 516H259.5V580H195.5V516Z" fill="#A13939"/>
<path d="M195 4H259V68H195V4Z" fill="#A13939"/>
<path d="M387 4H451V68H387V4Z" fill="#A13939"/>
<path d="M579.5 536C579.5 524.954 588.454 516 599.5 516H643.5V580H579.5V536Z" fill="#A13939"/>
<path d="M579 4H643V68H579V4Z" fill="#A13939"/>
<path d="M643 4H707V68H643V4Z" fill="#A13939"/>
<path d="M771.5 516H835.5V580H771.5V516Z" fill="#A13939"/>
<path d="M771 4H835V48C835 59.0457 826.046 68 815 68H771V4Z" fill="#A13939"/>
<path d="M899.5 516H963.5V580H899.5V516Z" fill="#A13939"/>
<path d="M899 4H963V68H899V4Z" fill="#2DA3F3"/>
<path d="M963.5 516H1027.5V570C1027.5 575.523 1023.02 580 1017.5 580H963.5V516Z" fill="#A13939"/>
<path d="M963 4H1017C1022.52 4 1027 8.47715 1027 14V68H963V4Z" fill="#2DA3F3"/>
<path d="M3.5 516H67.5V580H13.5C7.97715 580 3.5 575.523 3.5 570V516Z" fill="#A13939"/>
<path d="M4 132H68V196H4V132Z" fill="#378D54"/>
<path d="M67 132H131V196H67V132Z" fill="#378D54"/>
<path d="M131 132H195V196H131V132Z" fill="#378D54"/>
<path d="M195 132H259V196H195V132Z" fill="#378D54"/>
<path d="M259 132H323V196H259V132Z" fill="#378D54"/>
<path d="M323 132H387V196H323V132Z" fill="#378D54"/>
<path d="M387 132H451V196H387V132Z" fill="#378D54"/>
<path d="M451 132H495C506.046 132 515 140.954 515 152V196H451V132Z" fill="#378D54"/>
<path d="M451 196H515V260H451V196Z" fill="#378D54"/>
<path d="M451 260H515V324H451V260Z" fill="#378D54"/>
<path d="M451 324H515V388H451V324Z" fill="#378D54"/>
<path d="M643 324H707V388H643V324Z" fill="#378D54"/>
<path d="M515 324H579V388H515V324Z" fill="#378D54"/>
<path d="M707 324H771V388H707V324Z" fill="#378D54"/>
<path d="M707 280C707 268.954 715.954 260 727 260H751C762.046 260 771 268.954 771 280V324H707V280Z" fill="#378D54"/>
<path d="M899 68H963V132H899V68Z" fill="#2DA3F3"/>
<path d="M899 132H963V196H899V132Z" fill="#2DA3F3"/>
<path d="M835 132H899V196H855C843.954 196 835 187.046 835 176V132Z" fill="#2DA3F3"/>
<path d="M835 68H899V132H835V68Z" fill="#2DA3F3"/>
<path d="M835 324H899V388H835V324Z" fill="#378D54"/>
<path d="M899 324H963V388H899V324Z" fill="#378D54"/>
<path d="M579 324H643V388H579V324Z" fill="#378D54"/>
<path d="M771 324H835V388H771V324Z" fill="#378D54"/>
<path d="M963 324H1027V388H963V324Z" fill="#378D54"/>
<path d="M451 388H515V452H451V388Z" fill="#378D54"/>
<path d="M451 452H515V516H451V452Z" fill="#378D54"/>
<path d="M451 516H515V580H451V516Z" fill="#378D54"/>
<rect x="721" y="266" width="36" height="56" rx="2" fill="#A13DC5"/>
</svg>
